<svg enable-background="new 0 0 396.73 70.6" viewBox="0 0 396.73 70.6" xmlns="http://www.w3.org/2000/svg"><path d="m226.88 34.46 2.88 7.36-5.76.25zm-170.27 14.92 5.76-.25-2.88-7.36zm222.24-27.62-.71.03v9.47l.71-.03c3.26-.14 5.82-1.6 5.82-4.99 0-3.4-2.56-4.63-5.82-4.48zm-138.54 23.96 5.76-.25-2.88-7.36zm-120.09 1.02-1.54.07v7.42l1.54-.07c3.33-.15 4.86-1.37 4.86-3.92s-1.6-3.64-4.86-3.5zm3.2-12.36c0-1.86-1.09-2.9-3.2-2.8l-1.54.07v5.89l1.54-.07c2.11-.1 3.2-1.23 3.2-3.09zm-23.42-17.47 21.96-.96c6.54-.29 11.9 1.39 15.5 4.84.84.81 1.57 1.71 2.19 2.68 2.69.14 5.04.73 6.92 1.77l3.93-10.54 17.83-.78 3.1 8.03 6.23-.27v-8.16l19.38-.85 3.59 4.86v-5.02l24.37-1.06v8.16l6.09-.27 3.1-8.3 17.83-.78 3.1 8.02 6.23-.27v-8.15l19.38-.85 3.59 4.86v-5.01l24.38-1.06v8.16l6.09-.27 3.09-8.3 17.83-.78 3.1 8.03 8.2-.36 12.01 31.15v-39.83l19.98-.87c7.63-.33 14.26 1.84 18.73 6.12.04.04.07.08.11.12v-7.07l46.39-2.03 15.04-.66 3.59 4.86v-5.01l24.37-1.06v8.16l9.5-.41v42.68l-9.5.42v2.85l-19.45.85-2.04-2.76-1.49.06v2.85l-24.38 1.06v-2.02c-1.23.23-2.53.37-3.88.43-.66.03-1.3.04-1.92.02-3.5 2.04-7.8 3.25-12.84 3.47-.52.02-1.04.03-1.55.03-4.02 0-7.61-.72-10.67-2.1l.86 1.47-50.86 2.22v-2.85l-4.02.18 1.08 2.8-25.08 1.09-1.05-2.8-5.97.26-1.05 2.9-25.42 1.11-8.27.36-2.04-2.76-1.49.06v2.85l-13.34.58-25.08 1.09-1.04-2.8-5.97.26-1.04 2.9-25.42 1.11-8.27.36-2.04-2.76-1.49.06v2.85l-13.34.58-25.08 1.09-1.05-2.8-5.97.26-1.04 2.9-25.42 1.11.38-1.02c-2.25.74-4.7 1.21-7.36 1.33l-23.13 1.02v-53.69zm38.52 33.07c0-7.17-5.12-9.7-5.12-9.7s3.2-2.64 3.2-7.95c0-7.62-5.82-11.26-14.4-10.89l-16.7.73v42.69l17.41-.76c9.6-.42 15.61-5.87 15.61-14.12zm42.28 11.59-16.19-41.98-10.24.45-16.19 43.39 13.44-.59 1.41-3.9 12.93-.56 1.41 3.78zm38.7-44.38-13.38.58v16.45l-11.77-15.93-11.2.49v42.68l13.38-.58v-16.38l11.71 15.87 11.26-.49zm45 40.72-16.19-41.98-10.24.45-16.19 43.39 13.44-.59 1.41-3.9 12.93-.56 1.41 3.78zm38.69-44.37-13.38.58v16.45l-11.78-15.93-11.2.49v42.68l13.38-.58v-16.39l11.71 15.87 11.26-.49v-42.68zm45 40.72-16.19-41.98-10.24.45-16.19 43.39 13.44-.59 1.41-3.9 12.93-.56 1.41 3.78zm52.35-2.29-8-13.73s5.76-3.77 5.76-12.22c0-10.82-8.19-16.28-19.07-15.81l-14.72.64v42.69l13.63-.6v-10.8l6.4 10.54zm38.18-44.35-13.7.6v26.56c0 3.01-1.15 4.66-4.03 4.78-2.88.13-4.03-1.42-4.03-4.43v-26.56l-13.63.6v27.13c0 11.26 6.91 16.34 17.66 15.87s17.73-6.15 17.73-17.41zm43.01-1.87-13.38.58v16.45l-11.77-15.94-11.2.49v42.68l13.38-.58v-16.38l11.71 15.87 11.26-.49z" fill="#fff"/></svg>